<svg width="41" height="41" viewBox="0 0 41 41" fill="none" xmlns="http://www.w3.org/2000/svg">
<g clip-path="url(#clip0_61_845)">
<path d="M35.883 1.70898H5.12614C3.7666 1.70898 2.46275 2.24906 1.50141 3.2104C0.540074 4.17173 0 5.47559 0 6.83513L0 39.3007H41.0091V6.83513C41.0091 5.47559 40.4691 4.17173 39.5077 3.2104C38.5464 2.24906 37.2425 1.70898 35.883 1.70898ZM5.12614 5.12641H35.883C36.3362 5.12641 36.7708 5.30644 37.0912 5.62688C37.4117 5.94733 37.5917 6.38195 37.5917 6.83513V7.97484L24.1305 21.4378C23.1675 22.3969 21.8637 22.9354 20.5046 22.9354C19.1454 22.9354 17.8417 22.3969 16.8787 21.4378L3.41743 7.97484V6.83513C3.41743 6.38195 3.59745 5.94733 3.9179 5.62688C4.23834 5.30644 4.67296 5.12641 5.12614 5.12641ZM3.41743 35.8833V12.8156L14.4626 23.8539C16.0664 25.4537 18.2393 26.3521 20.5046 26.3521C22.7699 26.3521 24.9427 25.4537 26.5466 23.8539L37.5917 12.8156V35.8833H3.41743Z" fill="#C7926A"/>
</g>
<defs>
<clipPath id="clip0_61_845">
<rect width="41.0091" height="41.0091" fill="white"/>
</clipPath>
</defs>
</svg>
