<svg width="20" height="19" viewBox="0 0 20 19" fill="none" xmlns="http://www.w3.org/2000/svg">
<path d="M10 1.71158C12.67 1.71158 12.9867 1.72108 14.0408 1.767C15.1308 1.8145 16.2533 2.05042 17.0475 2.80488C17.8492 3.56646 18.09 4.62254 18.14 5.66121C18.1883 6.66267 18.1983 6.9635 18.1983 9.5C18.1983 12.0365 18.1883 12.3373 18.14 13.3388C18.0908 14.3688 17.8367 15.4454 17.0475 16.1951C16.2458 16.9567 15.135 17.1855 14.0408 17.233C12.9867 17.2789 12.67 17.2884 10 17.2884C7.33 17.2884 7.01333 17.2789 5.95917 17.233C4.88333 17.1863 3.735 16.9393 2.9525 16.1951C2.155 15.4375 1.91 14.3711 1.86 13.3388C1.81167 12.3373 1.80167 12.0365 1.80167 9.5C1.80167 6.9635 1.81167 6.66267 1.86 5.66121C1.90917 4.63521 2.16583 3.55221 2.9525 2.80488C3.7525 2.04488 4.86833 1.8145 5.95917 1.767C7.01333 1.72108 7.33 1.71158 10 1.71158ZM10 0C7.28417 0 6.94333 0.0110833 5.87667 0.057C4.33083 0.124292 2.79583 0.532792 1.67833 1.59442C0.556667 2.66 0.130833 4.11508 0.06 5.58283C0.0116667 6.59617 0 6.91996 0 9.5C0 12.08 0.0116667 12.4038 0.06 13.4172C0.130833 14.8841 0.5625 16.3463 1.67833 17.4056C2.79917 18.4704 4.33333 18.8757 5.87667 18.943C6.94333 18.9889 7.28417 19 10 19C12.7158 19 13.0567 18.9889 14.1233 18.943C15.6683 18.8757 17.205 18.4664 18.3217 17.4056C19.4442 16.3392 19.8692 14.8849 19.94 13.4172C19.9883 12.4038 20 12.08 20 9.5C20 6.91996 19.9883 6.59617 19.94 5.58283C19.8692 4.11429 19.4383 2.65525 18.3217 1.59442C17.2025 0.531208 15.6642 0.1235 14.1233 0.057C13.0567 0.0110833 12.7158 0 10 0Z" fill="#C7926A"/>
<path d="M10.0002 4.62109C7.1644 4.62109 4.86523 6.8053 4.86523 9.49934C4.86523 12.1934 7.1644 14.3776 10.0002 14.3776C12.8361 14.3776 15.1352 12.1934 15.1352 9.49934C15.1352 6.8053 12.8361 4.62109 10.0002 4.62109ZM10.0002 12.666C8.1594 12.666 6.6669 11.2481 6.6669 9.49934C6.6669 7.75055 8.1594 6.33268 10.0002 6.33268C11.8411 6.33268 13.3336 7.75055 13.3336 9.49934C13.3336 11.2481 11.8411 12.666 10.0002 12.666Z" fill="#C7926A"/>
<path d="M15.3382 5.56906C16.0009 5.56906 16.5382 5.05867 16.5382 4.42906C16.5382 3.79946 16.0009 3.28906 15.3382 3.28906C14.6754 3.28906 14.1382 3.79946 14.1382 4.42906C14.1382 5.05867 14.6754 5.56906 15.3382 5.56906Z" fill="#C7926A"/>
</svg>
