<svg width="47" height="47" viewBox="0 0 47 47" fill="none" xmlns="http://www.w3.org/2000/svg">
<g clip-path="url(#clip0_61_846)">
<path d="M23.3514 46.8827L21.9902 45.7159C20.1135 44.1445 3.72754 29.993 3.72754 19.6415C3.72754 8.80351 12.5135 0.0175781 23.3514 0.0175781C34.1894 0.0175781 42.9753 8.80351 42.9753 19.6415C42.9753 29.9931 26.5893 44.1446 24.7205 45.7236L23.3514 46.8827ZM23.3514 4.26083C14.861 4.27044 7.9805 11.1509 7.97089 19.6414C7.97089 26.1444 18.0522 36.5329 23.3514 41.2877C28.6507 36.531 38.7319 26.1366 38.7319 19.6414C38.7223 11.1509 31.842 4.27054 23.3514 4.26083Z" fill="#C7926A"/>
<path d="M23.351 27.4208C19.0549 27.4208 15.5723 23.9381 15.5723 19.642C15.5723 15.3459 19.0549 11.8633 23.351 11.8633C27.6471 11.8633 31.1297 15.3459 31.1297 19.642C31.1297 23.9381 27.6472 27.4208 23.351 27.4208ZM23.351 15.7526C21.203 15.7526 19.4616 17.4939 19.4616 19.6419C19.4616 21.79 21.203 23.5313 23.351 23.5313C25.499 23.5313 27.2404 21.79 27.2404 19.6419C27.2404 17.4939 25.4991 15.7526 23.351 15.7526Z" fill="#C7926A"/>
</g>
<defs>
<clipPath id="clip0_61_846">
<rect width="46.8676" height="46.8676" fill="white"/>
</clipPath>
</defs>
</svg>
