<svg width="41" height="42" viewBox="0 0 41 42" fill="none" xmlns="http://www.w3.org/2000/svg">
<g clip-path="url(#clip0_61_847)">
<path d="M38.0702 5.93225L32.6536 0.515625L21.957 11.2293L27.7837 17.056C25.4428 22.2846 21.8203 25.9242 16.7625 28.1114L10.9358 22.2846L0.205078 32.9641L5.6217 38.3807C7.51837 40.2774 10.0644 41.3197 12.8154 41.3197C25.2036 41.3197 41.0092 25.5141 41.0092 13.1259C41.0092 10.3749 39.9669 7.82892 38.0702 5.93225ZM12.8154 37.9023C10.9871 37.9023 9.27835 37.2188 8.04808 35.9714L5.04074 32.9641L10.9187 27.0861L15.9252 32.0927L16.9676 31.6997C23.7341 29.1195 28.6039 24.2668 31.4062 17.2781L31.8334 16.2358L26.8268 11.2122L32.7048 5.3342L35.7122 8.34154C36.9595 9.5889 37.643 11.2805 37.643 13.1088C37.643 23.7541 23.5119 37.8852 12.8666 37.8852L12.8154 37.9023Z" fill="#C7926A"/>
</g>
<defs>
<clipPath id="clip0_61_847">
<rect width="41.0091" height="41.0091" fill="white" transform="translate(0 0.310547)"/>
</clipPath>
</defs>
</svg>
