<svg width="18" height="20" viewBox="0 0 18 20" fill="none" xmlns="http://www.w3.org/2000/svg">
<path d="M12.9748 9.20703C13.0609 9.24219 13.1391 9.28125 13.2213 9.31641C14.3642 9.86719 15.2018 10.6914 15.6401 11.7148C16.2546 13.1406 16.3133 15.457 14.4542 17.3086C13.0374 18.7227 11.3114 19.3594 8.873 19.3789H8.86126C6.11371 19.3594 4.00412 18.4375 2.58337 16.6367C1.31919 15.0352 0.669479 12.8047 0.645996 10.0117V10V9.99219C0.665566 7.19922 1.31527 4.96875 2.57946 3.36719C4.0002 1.56641 6.11371 0.644531 8.86126 0.625H8.873C11.6245 0.644531 13.7615 1.5625 15.2253 3.35547C15.9454 4.24219 16.4777 5.30859 16.8143 6.54688L15.2331 6.96875C14.9552 5.96094 14.5364 5.10156 13.9728 4.41406C12.83 3.01562 11.1157 2.29688 8.86518 2.28125C6.63425 2.30078 4.94737 3.01563 3.84756 4.40625C2.82212 5.70703 2.28983 7.58984 2.27026 10C2.28983 12.4102 2.82212 14.293 3.84756 15.5977C4.94345 16.9883 6.63425 17.7031 8.86518 17.7227C10.8769 17.707 12.2076 17.2305 13.3153 16.125C14.5795 14.8672 14.556 13.3203 14.1528 12.3789C13.9141 11.8242 13.4836 11.3633 12.9043 11.0156C12.7595 12.0664 12.4425 12.9023 11.9376 13.5469C11.2683 14.3984 10.3172 14.8594 9.09218 14.9258C8.1685 14.9766 7.28005 14.7539 6.5912 14.3008C5.77711 13.7617 5.29962 12.9414 5.24874 11.9844C5.15089 10.0977 6.646 8.74219 8.97476 8.60938C9.8006 8.5625 10.5755 8.59766 11.2918 8.71875C11.1979 8.14062 11.0061 7.67969 10.7204 7.34375C10.329 6.88672 9.7184 6.65234 8.91214 6.64844H8.88474C8.23504 6.64844 7.35833 6.82812 6.79864 7.67578L5.45226 6.75391C6.20373 5.61719 7.42095 4.99219 8.88866 4.99219H8.91997C11.3701 5.00781 12.83 6.53516 12.9787 9.19922L12.9708 9.20703H12.9748ZM6.86909 11.8945C6.91997 12.875 7.98063 13.332 9.00607 13.2734C10.008 13.2188 11.1431 12.8281 11.3348 10.4141C10.8182 10.3008 10.2468 10.2422 9.63621 10.2422C9.44835 10.2422 9.26048 10.2461 9.07261 10.2578C7.39355 10.3516 6.83386 11.1641 6.873 11.8906L6.86909 11.8945Z" fill="#C7926A"/>
</svg>
