<svg width="20" height="20" viewBox="0 0 20 20" fill="none" xmlns="http://www.w3.org/2000/svg">
<g clip-path="url(#clip0_66_160)">
<path d="M18.7208 8.22167C16.9383 8.22167 15.2858 7.65167 13.9374 6.68333V13.6708C13.9374 17.1608 11.0983 19.9992 7.60909 19.9992C6.26076 19.9992 5.00993 19.5742 3.98243 18.8525C2.35076 17.7067 1.28076 15.8117 1.28076 13.6708C1.28076 10.1808 4.11993 7.34167 7.60993 7.34167C7.89993 7.34167 8.18326 7.36583 8.46243 7.40333V8.2175V10.9133C8.19243 10.8292 7.90743 10.78 7.60993 10.78C6.0166 10.78 4.71993 12.0767 4.71993 13.6708C4.71993 14.7808 5.34993 15.745 6.26993 16.2292C6.67076 16.44 7.1266 16.5608 7.61076 16.5608C9.16743 16.5608 10.4374 15.3225 10.4958 13.7792L10.4983 0H13.9366C13.9366 0.298333 13.9658 0.589167 14.0174 0.8725C14.2599 2.1825 15.0374 3.30667 16.1149 4.00917C16.8649 4.49833 17.7599 4.78417 18.7199 4.78417L18.7208 8.22167Z" fill="#C7926A"/>
</g>
<defs>
<clipPath id="clip0_66_160">
<rect width="20" height="20" fill="white"/>
</clipPath>
</defs>
</svg>
